<svg width="501" height="502" viewBox="0 0 501 502" fill="none" xmlns="http://www.w3.org/2000/svg">
<circle cx="250.498" cy="251.118" r="250.498" fill="#FCFCFC"/>
<path d="M145.425 37.7611H245.359V439.118H145.425V37.7611ZM323.146 442.9C311.262 442.9 300.818 441.819 291.815 439.659C283.172 437.498 275.249 433.717 268.047 428.315V359.711H273.989C281.912 359.711 287.493 359.351 290.735 358.631C294.336 357.551 297.037 355.39 298.837 352.149C300.638 348.187 301.718 342.425 302.078 334.863C302.439 329.461 302.619 318.297 302.619 301.371C302.619 284.446 302.439 273.282 302.078 267.88C301.718 259.957 300.638 254.195 298.837 250.594C297.397 246.993 294.696 244.832 290.735 244.112C285.693 243.391 280.111 243.031 273.989 243.031H268.047V174.428C275.249 168.666 282.992 164.885 291.275 163.084C299.558 160.923 310.181 159.843 323.146 159.843C351.955 159.843 372.663 170.286 385.267 191.174C397.871 212.781 404.173 249.874 404.173 302.452C404.173 355.39 397.871 392.302 385.267 413.19C378.785 423.633 370.322 431.196 359.878 435.877C349.795 440.559 337.551 442.9 323.146 442.9Z" fill="#17966B"/>
</svg>
